<?xml version="1.0" encoding="UTF-8" standalone="no"?>
<svg
   xmlns:dc="http://purl.org/dc/elements/1.1/"
   xmlns:cc="http://creativecommons.org/ns#"
   xmlns:rdf="http://www.w3.org/1999/02/22-rdf-syntax-ns#"
   xmlns:svg="http://www.w3.org/2000/svg"
   xmlns="http://www.w3.org/2000/svg"
   xmlns:sodipodi="http://sodipodi.sourceforge.net/DTD/sodipodi-0.dtd"
   xmlns:inkscape="http://www.inkscape.org/namespaces/inkscape"
   viewBox="0 0 50 50"
   enable-background="new 0 0 50 50"
   version="1.1"
   id="svg4"
   sodipodi:docname="lock.svg"
   inkscape:version="1.0.1 (3bc2e813f5, 2020-09-07)">
  <metadata
     id="metadata10">
    <rdf:RDF>
      <cc:Work
         rdf:about="">
        <dc:format>image/svg+xml</dc:format>
        <dc:type
           rdf:resource="http://purl.org/dc/dcmitype/StillImage" />
      </cc:Work>
    </rdf:RDF>
  </metadata>
  <defs
     id="defs8" />
  <sodipodi:namedview
     pagecolor="#ffffff"
     bordercolor="#666666"
     borderopacity="1"
     objecttolerance="10"
     gridtolerance="10"
     guidetolerance="10"
     inkscape:pageopacity="0"
     inkscape:pageshadow="2"
     inkscape:window-width="901"
     inkscape:window-height="1012"
     id="namedview6"
     showgrid="false"
     inkscape:zoom="17.78"
     inkscape:cx="25"
     inkscape:cy="25"
     inkscape:window-x="1003"
     inkscape:window-y="20"
     inkscape:window-maximized="0"
     inkscape:current-layer="svg4" />
  <path
     style="text-indent:0;text-align:start;line-height:normal;text-transform:none;block-progression:tb;-inkscape-font-specification:Bitstream Vera Sans"
     d="M 25 3 C 18.364481 3 13 8.3644809 13 15 L 13 20 L 9 20 C 7.3545455 20 6 21.354545 6 23 L 6 47 C 6 48.645455 7.3545455 50 9 50 L 41 50 C 42.645455 50 44 48.645455 44 47 L 44 23 C 44 21.354545 42.645455 20 41 20 L 37 20 L 37 15 C 37 8.3644809 31.635519 3 25 3 z M 25 5 C 30.564481 5 35 9.4355191 35 15 L 35 20 L 15 20 L 15 15 C 15 9.4355191 19.435519 5 25 5 z M 9 22 L 41 22 C 41.554545 22 42 22.445455 42 23 L 42 47 C 42 47.554545 41.554545 48 41 48 L 9 48 C 8.4454545 48 8 47.554545 8 47 L 8 23 C 8 22.445455 8.4454545 22 9 22 z M 25 30 C 23.3 30 22 31.3 22 33 C 22 33.9 22.4 34.6875 23 35.1875 L 23 38 C 23 39.1 23.9 40 25 40 C 26.1 40 27 39.1 27 38 L 27 35.1875 C 27.6 34.6875 28 33.9 28 33 C 28 31.3 26.7 30 25 30 z"
     overflow="visible"
     enable-background="accumulate"
     font-family="Bitstream Vera Sans"
     id="path2" />
  <path
     style="fill:#aa0000;stroke-width:0.056243"
     d="M 8.3321117,49.88279 C 7.3851884,49.653564 6.5535007,48.908375 6.2006989,47.973052 L 6.0742407,47.637795 6.0594046,35.151856 c -0.010489,-8.827367 0.00308,-12.572667 0.046317,-12.781922 0.1477961,-0.715343 0.7289416,-1.518323 1.3745938,-1.899304 0.692252,-0.408479 0.7826234,-0.420011 3.2913296,-0.420011 h 2.238987 l 0.02645,-3.163667 c 0.02387,-2.854375 0.0375,-3.224151 0.139447,-3.78234 0.487929,-2.671591 1.549479,-4.7294295 3.381603,-6.5553118 1.884915,-1.8784949 4.12136,-3.0008375 6.782696,-3.4038434 0.833931,-0.126282 2.484405,-0.126282 3.318336,0 1.324192,0.2005224 2.52037,0.5735217 3.644596,1.1364794 1.281202,0.6415635 2.107227,1.2381959 3.1381,2.2666284 1.858971,1.8545688 2.964246,4.0296374 3.402946,6.6966544 0.08127,0.494067 0.100912,1.098244 0.120225,3.697976 l 0.02309,3.107424 h 2.239611 c 2.509405,0 2.599677,0.01152 3.291954,0.420011 0.645652,0.380981 1.226798,1.183961 1.374594,1.899304 0.04323,0.209255 0.05681,3.954555 0.04632,12.781922 l -0.01484,12.485939 -0.126458,0.335257 c -0.260105,0.689572 -0.792153,1.299306 -1.423048,1.630832 -0.753444,0.395923 0.64762,0.366744 -17.404374,0.362478 C 11.098218,49.963083 8.6122187,49.950597 8.3321117,49.88279 Z M 41.44144,47.926657 c 0.237073,-0.09905 0.469307,-0.377289 0.542838,-0.650361 0.03934,-0.146112 0.05344,-4.144716 0.04366,-12.384957 -0.01405,-11.841229 -0.01733,-12.174998 -0.121657,-12.38511 -0.05897,-0.118761 -0.208976,-0.283272 -0.33335,-0.365579 L 41.346798,21.991001 H 25 8.6532026 L 8.4270674,22.14065 c -0.1243744,0.08231 -0.274382,0.246818 -0.3333505,0.365579 -0.1043258,0.210112 -0.1076044,0.543881 -0.1216566,12.38511 -0.00978,8.240241 0.00432,12.238845 0.043661,12.384957 0.071762,0.266504 0.3029016,0.548866 0.5304212,0.647967 0.2590795,0.112848 32.6253065,0.115204 32.8952975,0.0024 z M 35.010218,17.111924 c -0.0011,-3.163089 -0.0267,-3.550868 -0.307773,-4.662719 C 34.420158,11.33253 33.854389,10.11277 33.167277,9.1394826 32.684801,8.4560604 31.536867,7.3073488 30.849269,6.819904 29.827688,6.0956967 28.263295,5.4201358 27.052868,5.180483 21.283963,4.0382954 15.893482,7.8224774 15.073711,13.589994 c -0.06441,0.453157 -0.08313,1.238644 -0.08393,3.52193 l -0.001,2.938695 H 25 35.011249 l -10e-4,-2.938695 z"
     id="path12" />
  <path
     style="fill:#aa0000;stroke-width:0.056243"
     d="M 24.302196,39.824236 C 23.883434,39.648476 23.61559,39.435365 23.383539,39.093303 23.060058,38.616465 23.031562,38.423258 23.030897,36.70239 l -5.99e-4,-1.550534 -0.189505,-0.184092 c -0.621186,-0.603444 -0.923838,-1.573366 -0.768784,-2.463756 0.189011,-1.085381 0.991015,-2.010549 2.024047,-2.33488 0.507878,-0.159454 1.30001,-0.159454 1.807888,0 2.051498,0.644089 2.751194,3.305468 1.260853,4.795809 l -0.189896,0.189896 -0.01726,1.657679 c -0.01725,1.656747 -0.01734,1.657857 -0.165469,1.973765 -0.331903,0.707849 -0.967527,1.133555 -1.734709,1.161814 -0.346733,0.01277 -0.482972,-0.0096 -0.755268,-0.123855 z"
     id="path14" />
</svg>
